<svg width="23" height="23" viewBox="0 0 23 23" fill="none" xmlns="http://www.w3.org/2000/svg">
<path d="M6.36876 18.6059L7.1927 19.0443C8.46958 19.7237 9.89553 20.0781 11.3434 20.0759L11.3472 20.0759C16.2217 20.0759 20.1728 16.1437 20.1728 11.2927C20.1728 6.44169 16.2217 2.50949 11.3472 2.50949C6.47281 2.50949 2.52162 6.44169 2.52162 11.2927V11.2965C2.51943 12.7374 2.87554 14.1565 3.5582 15.4273L3.9987 16.2472L3.32137 19.28L6.36876 18.6059ZM1.2807e-05 22.5854L1.33445 16.6104C0.45564 14.9745 -0.00279351 13.1477 1.2807e-05 11.2927C1.2807e-05 5.05574 5.08016 0 11.3472 0C17.6143 0 22.6944 5.05574 22.6944 11.2927C22.6944 17.5296 17.6143 22.5854 11.3472 22.5854C9.48328 22.5882 7.6476 22.1319 6.00382 21.2574L1.2807e-05 22.5854Z" fill="black"/>
</svg>
