<svg width="113" height="31" viewBox="0 0 113 31" fill="none" xmlns="http://www.w3.org/2000/svg">
<path d="M1.63588 24.792C0.995876 24.792 0.675876 24.472 0.675876 23.832L0.323876 3.096C0.302543 2.34933 0.505209 1.79467 0.931876 1.432C1.35854 1.048 1.90254 0.855999 2.56388 0.855999L14.3719 0.792C14.7132 0.792 14.9799 0.898666 15.1719 1.112C15.3852 1.304 15.4919 1.57067 15.4919 1.912V4.536C15.4919 4.87733 15.3852 5.15467 15.1719 5.368C14.9799 5.56 14.7132 5.656 14.3719 5.656L6.11588 5.816L6.05188 10.424L13.7319 10.488C14.0732 10.488 14.3399 10.5947 14.5319 10.808C14.7452 11 14.8519 11.2667 14.8519 11.608V14.04C14.8519 14.3813 14.7452 14.6587 14.5319 14.872C14.3399 15.064 14.0732 15.16 13.7319 15.16L5.98788 15.288L5.85988 23.832C5.85988 24.472 5.53988 24.792 4.89988 24.792H1.63588ZM28.6621 24.792C28.0221 24.792 27.7021 24.472 27.7021 23.832L27.6701 22.84C27.3075 23.5227 26.7315 24.088 25.9421 24.536C25.1528 25.0053 24.1395 25.24 22.9021 25.24C22.0915 25.24 21.3448 25.1013 20.6621 24.824C20.0008 24.568 19.4035 24.2053 18.8701 23.736C18.3581 23.2667 17.9208 22.712 17.5581 22.072C17.2168 21.4107 16.9715 20.7067 16.8221 19.96C16.6515 19.0853 16.5235 18.1573 16.4381 17.176C16.3528 16.1733 16.3101 15.16 16.3101 14.136C16.3101 13.112 16.3315 12.0773 16.3741 11.032C16.4168 9.98667 16.4808 8.97333 16.5661 7.992C16.6088 7.672 16.6941 7.43733 16.8221 7.288C16.9715 7.11733 17.2061 7.032 17.5261 7.032H21.2061C21.8675 7.032 22.1661 7.352 22.1021 7.992C21.9315 9.82667 21.8035 11.5653 21.7181 13.208C21.6541 14.8507 21.7075 16.376 21.8781 17.784C21.9848 18.5947 22.2835 19.2133 22.7741 19.64C23.2861 20.0453 23.9581 20.248 24.7901 20.248C25.6008 20.248 26.2621 19.9813 26.7741 19.448C27.3075 18.8933 27.5635 18.2427 27.5421 17.496L27.3181 7.992C27.3181 7.352 27.6275 7.032 28.2461 7.032H32.1501C32.7901 7.032 33.0995 7.352 33.0781 7.992L32.7581 23.832C32.7581 24.472 32.4381 24.792 31.7981 24.792H28.6621ZM36.0966 24.792C35.4566 24.792 35.1366 24.472 35.1366 23.832L34.7526 7.96C34.71 7.32 35.0193 7 35.6806 7H39.5846C40.0753 7 40.374 7.21333 40.4806 7.64V9.24C40.7153 8.77067 41.0246 8.36533 41.4086 8.024C41.814 7.68267 42.2406 7.40533 42.6886 7.192C43.158 6.95733 43.6273 6.79733 44.0966 6.712C44.566 6.60533 45.0033 6.552 45.4086 6.552C46.198 6.552 46.9126 6.69067 47.5526 6.968C48.214 7.224 48.7793 7.58667 49.2486 8.056C49.7393 8.52533 50.1446 9.09067 50.4646 9.752C50.7846 10.392 51.0193 11.0853 51.1686 11.832C51.3393 12.7067 51.4673 13.6453 51.5526 14.648C51.638 15.6293 51.6806 16.632 51.6806 17.656C51.6806 18.68 51.6593 19.7147 51.6166 20.76C51.574 21.8053 51.51 22.8187 51.4246 23.8C51.382 24.12 51.286 24.3547 51.1366 24.504C51.0086 24.6747 50.7846 24.76 50.4646 24.76H46.7846C46.1233 24.76 45.8246 24.44 45.8886 23.8C46.0593 21.9653 46.1766 20.2267 46.2406 18.584C46.326 16.9413 46.2833 15.416 46.1126 14.008C46.006 13.1973 45.6966 12.5893 45.1846 12.184C44.694 11.7573 44.0326 11.544 43.2006 11.544C42.3046 11.544 41.6113 11.8 41.1206 12.312C40.6513 12.824 40.406 13.4107 40.3846 14.072L40.1926 23.832C40.1926 24.472 39.8726 24.792 39.2326 24.792H36.0966ZM58.5034 16.92C58.738 17.368 59.0367 17.752 59.3994 18.072C59.7834 18.392 60.2207 18.648 60.7114 18.84C61.2234 19.0107 61.7674 19.096 62.3434 19.096C62.9194 19.096 63.4527 19.0107 63.9434 18.84C64.4554 18.648 64.9034 18.392 65.2874 18.072C65.6714 17.752 65.97 17.368 66.1834 16.92C66.3967 16.4507 66.5034 15.9387 66.5034 15.384C66.5034 14.2533 66.1087 13.3573 65.3194 12.696C64.5514 12.0133 63.5594 11.672 62.3434 11.672C61.7674 11.672 61.2234 11.768 60.7114 11.96C60.2207 12.1307 59.7834 12.376 59.3994 12.696C59.0367 13.016 58.738 13.4107 58.5034 13.88C58.29 14.328 58.1834 14.8293 58.1834 15.384C58.1834 15.9387 58.29 16.4507 58.5034 16.92ZM55.7834 25.304C56.1247 24.792 56.5727 24.7067 57.1274 25.048C57.7887 25.4533 58.4714 25.7733 59.1754 26.008C59.9007 26.264 60.69 26.392 61.5434 26.392C62.3327 26.392 63.026 26.264 63.6234 26.008C64.242 25.752 64.7647 25.3893 65.1914 24.92C65.618 24.4507 65.938 23.896 66.1514 23.256C66.386 22.6373 66.5034 21.944 66.5034 21.176V20.632C66.0767 21.3787 65.394 22.008 64.4554 22.52C63.538 23.032 62.418 23.288 61.0954 23.288C59.9007 23.288 58.7914 23.1067 57.7674 22.744C56.7647 22.36 55.89 21.816 55.1434 21.112C54.418 20.3867 53.8527 19.512 53.4474 18.488C53.042 17.464 52.8394 16.3013 52.8394 15C52.8394 13.6987 53.042 12.536 53.4474 11.512C53.8527 10.488 54.418 9.624 55.1434 8.92C55.89 8.19467 56.7647 7.64 57.7674 7.256C58.7914 6.872 59.9007 6.68 61.0954 6.68C62.3754 6.68 63.4527 6.936 64.3274 7.448C65.202 7.96 65.7994 8.54667 66.1194 9.208L66.0874 7.96C66.0447 7.32 66.354 7 67.0154 7H70.9194C71.538 7 71.8474 7.32 71.8474 7.96L71.5594 20.696C71.5167 22.232 71.2607 23.6293 70.7914 24.888C70.3434 26.1467 69.6927 27.2133 68.8394 28.088C68.0074 28.984 66.9834 29.6667 65.7674 30.136C64.5727 30.6267 63.218 30.8507 61.7034 30.808C60.4234 30.7653 59.2074 30.5093 58.0554 30.04C56.9034 29.5707 55.8794 28.9307 54.9834 28.12C54.7914 27.9493 54.6634 27.7573 54.5994 27.544C54.5354 27.3307 54.5887 27.096 54.7594 26.84L55.7834 25.304ZM79.5859 19.672C80.3325 20.4827 81.3459 20.888 82.6259 20.888C83.9272 20.888 84.9405 20.4827 85.6659 19.672C86.4125 18.84 86.7859 17.752 86.7859 16.408C86.7859 15.064 86.4232 13.9867 85.6979 13.176C84.9939 12.344 83.9699 11.928 82.6259 11.928C81.3459 11.928 80.3325 12.344 79.5859 13.176C78.8392 13.9867 78.4659 15.064 78.4659 16.408C78.4659 17.752 78.8392 18.84 79.5859 19.672ZM87.7139 24.792C87.1379 24.792 86.8499 24.536 86.8499 24.024V22.552C86.4019 23.32 85.7192 23.9493 84.8019 24.44C83.8845 24.952 82.8499 25.208 81.6979 25.208C80.5032 25.208 79.3832 24.9947 78.3379 24.568C77.2925 24.1413 76.3859 23.5333 75.6179 22.744C74.8499 21.9333 74.2419 20.9627 73.7939 19.832C73.3459 18.68 73.1219 17.3893 73.1219 15.96C73.1219 14.5307 73.3459 13.24 73.7939 12.088C74.2419 10.936 74.8499 9.96533 75.6179 9.176C76.3859 8.36533 77.2925 7.74667 78.3379 7.32C79.3832 6.872 80.5032 6.65867 81.6979 6.68C82.2312 6.68 82.7432 6.75467 83.2339 6.904C83.7459 7.032 84.2045 7.21333 84.6099 7.448C85.0365 7.66133 85.4099 7.928 85.7299 8.248C86.0499 8.568 86.2845 8.90933 86.4339 9.272V7.96C86.3912 7.32 86.7005 7 87.3619 7H91.2659C91.8845 7 92.1939 7.32 92.1939 7.96L91.8099 23.832C91.8099 24.472 91.4899 24.792 90.8499 24.792H87.7139ZM100.027 19.672C100.39 20.056 100.827 20.3547 101.339 20.568C101.851 20.7813 102.406 20.888 103.003 20.888C103.6 20.888 104.144 20.7813 104.635 20.568C105.147 20.3547 105.584 20.056 105.947 19.672C106.331 19.2667 106.63 18.7973 106.843 18.264C107.056 17.7093 107.163 17.0907 107.163 16.408C107.163 15.7467 107.056 15.1387 106.843 14.584C106.63 14.0293 106.331 13.56 105.947 13.176C105.584 12.7707 105.147 12.4613 104.635 12.248C104.144 12.0347 103.6 11.928 103.003 11.928C101.744 11.928 100.731 12.344 99.9629 13.176C99.2162 13.9867 98.8429 15.064 98.8429 16.408C98.8429 17.0907 98.9495 17.7093 99.1629 18.264C99.3762 18.7973 99.6642 19.2667 100.027 19.672ZM95.1309 30.84C94.4909 30.84 94.1709 30.52 94.1709 29.88L93.7869 7.96C93.7869 7.32 94.0962 7 94.7149 7H98.6189C98.9175 7 99.1415 7.07467 99.2909 7.224C99.4615 7.352 99.5469 7.59733 99.5469 7.96V8.952C99.9522 8.26933 100.56 7.72533 101.371 7.32C102.203 6.89333 103.163 6.68 104.251 6.68C105.446 6.68 106.544 6.904 107.547 7.352C108.571 7.77867 109.446 8.39733 110.171 9.208C110.918 9.99733 111.494 10.968 111.899 12.12C112.304 13.2507 112.507 14.5307 112.507 15.96C112.507 17.3893 112.304 18.68 111.899 19.832C111.494 20.9627 110.918 21.9333 110.171 22.744C109.446 23.5333 108.571 24.1413 107.547 24.568C106.544 24.9947 105.446 25.208 104.251 25.208C103.099 25.208 102.096 24.984 101.243 24.536C100.39 24.1093 99.7495 23.4907 99.3229 22.68L99.2269 29.88C99.2269 30.52 98.9069 30.84 98.2669 30.84H95.1309Z" fill="#1D1D1D"/>
</svg>
