<svg width="26" height="26" viewBox="0 0 26 26" fill="none" xmlns="http://www.w3.org/2000/svg">
<path d="M7.58398 8.66667C7.58398 5.67512 10.0091 3.25 13.0007 3.25C15.9922 3.25 18.4173 5.67512 18.4173 8.66667C18.4173 11.6582 15.9922 14.0833 13.0007 14.0833C10.0091 14.0833 7.58398 11.6582 7.58398 8.66667ZM13.0007 11.9167C14.7956 11.9167 16.2507 10.4616 16.2507 8.66667C16.2507 6.87174 14.7956 5.41667 13.0007 5.41667C11.2057 5.41667 9.75065 6.87174 9.75065 8.66667C9.75065 10.4616 11.2057 11.9167 13.0007 11.9167Z" fill="black"/>
<path d="M6.87239 17.7051C5.24708 19.3304 4.33398 21.5348 4.33398 23.8333H6.50065C6.50065 22.1094 7.18547 20.4561 8.40446 19.2371C9.62344 18.0182 11.2767 17.3333 13.0007 17.3333C14.7246 17.3333 16.3779 18.0182 17.5968 19.2371C18.8158 20.4561 19.5007 22.1094 19.5007 23.8333H21.6673C21.6673 21.5348 20.7542 19.3304 19.1289 17.7051C17.5036 16.0798 15.2992 15.1667 13.0007 15.1667C10.7021 15.1667 8.49771 16.0798 6.87239 17.7051Z" fill="black"/>
</svg>
